<?xml version="1.0" encoding="UTF-8" standalone="no"?>
<svg
    xmlns="http://www.w3.org/2000/svg"
    version="1.1"
    id="icon_github"
    x="0px"
    y="0px"
    viewBox="0 0 48 48"
    width="48px"
    height="48px"
>
  <defs />
  <path id="icon_bg" fill="#505050" d="m 47.935735,41.299903 c 0,3.665633 -2.970199,6.635832 -6.635832,6.635832 H 6.7935735 c -3.6643067,0 -6.63583251,-2.970199 -6.63583251,-6.635832 V 6.7935731 c 0,-3.665633 2.97152581,-6.63583203 6.63583251,-6.63583203 H 41.299903 c 3.665633,0 6.635832,2.97019903 6.635832,6.63583203 z" style="stroke-width:1.32717" shape-rendering="geometricPrecision" />
  <path id="icon_logo" fill="#ffffff" d="M 40.206097,15.062853 C 38.532388,12.195148 36.262109,9.9247829 33.394657,8.2512461 30.526784,6.5776188 27.395918,5.7410204 23.999841,5.7410204 c -3.395647,0 -6.527535,0.8368562 -9.394815,2.5102257 -2.867705,1.6734518 -5.1378986,3.9439019 -6.8116115,6.8116069 -1.6734511,2.867625 -2.5102222,5.999083 -2.5102222,9.394305 0,4.078431 1.1898974,7.745858 3.5702927,11.003225 2.380135,3.257625 5.454922,5.511774 9.224097,6.762705 0.438744,0.08143 0.763531,0.02416 0.974709,-0.170377 0.211264,-0.194791 0.316766,-0.438742 0.316766,-0.730841 0,-0.04874 -0.0041,-0.487224 -0.01231,-1.315973 -0.0083,-0.828747 -0.01231,-1.551733 -0.01231,-2.168616 l -0.560546,0.09696 c -0.357399,0.06548 -0.808262,0.09322 -1.35259,0.08536 -0.544074,-0.0075 -1.108891,-0.06461 -1.693682,-0.170631 -0.585047,-0.105077 -1.129207,-0.348777 -1.632906,-0.730584 -0.503446,-0.38181 -0.860841,-0.881583 -1.072107,-1.498552 l -0.243696,-0.56081 c -0.162434,-0.37336 -0.418172,-0.788117 -0.767546,-1.242735 -0.349369,-0.455045 -0.702666,-0.763534 -1.060063,-0.92597 L 10.79067,32.768172 c -0.113702,-0.08118 -0.219203,-0.179085 -0.316767,-0.292698 -0.09748,-0.113607 -0.170463,-0.227307 -0.219202,-0.341172 -0.04882,-0.113963 -0.0084,-0.207427 0.121807,-0.280747 0.130172,-0.07332 0.36542,-0.108909 0.706768,-0.108909 l 0.48723,0.0728 c 0.324956,0.06512 0.726914,0.259658 1.206372,0.584791 0.479201,0.324875 0.87313,0.747227 1.181872,1.266892 0.37387,0.666308 0.82431,1.174018 1.35259,1.523393 0.527857,0.349373 1.060071,0.52376 1.596121,0.52376 0.53605,0 0.999033,-0.04064 1.389125,-0.121465 0.389664,-0.08125 0.75525,-0.20341 1.096602,-0.365764 0.146217,-1.089003 0.544327,-1.925602 1.193991,-2.510395 -0.925965,-0.09731 -1.75847,-0.243868 -2.497933,-0.43874 -0.73903,-0.195131 -1.502731,-0.511812 -2.290596,-0.950896 -0.788283,-0.438483 -1.442215,-0.982988 -1.96196,-1.632565 -0.519839,-0.649919 -0.946458,-1.503165 -1.27927,-2.558962 -0.332984,-1.056229 -0.499519,-2.274633 -0.499519,-3.655565 0,-1.966234 0.641895,-3.63943 1.925432,-5.020533 -0.601265,-1.478239 -0.544502,-3.13539 0.170461,-4.971282 0.471179,-0.146388 1.169923,-0.03652 2.095893,0.328888 0.926139,0.365589 1.604229,0.678771 2.034949,0.938429 0.43072,0.259578 0.77582,0.479546 1.035822,0.657946 1.511275,-0.42227 3.07086,-0.633445 4.679189,-0.633445 1.608324,0 3.168248,0.211175 4.679607,0.633445 l 0.926057,-0.584616 c 0.633276,-0.390092 1.381098,-0.747571 2.241684,-1.072531 0.861099,-0.324791 1.51955,-0.414243 1.974684,-0.267855 0.730841,1.835977 0.79597,3.493042 0.194531,4.971277 1.283455,1.381103 1.925607,3.05473 1.925607,5.020534 0,1.380932 -0.167132,2.603182 -0.499607,3.667513 -0.332897,1.06451 -0.76319,1.916897 -1.291046,2.558968 -0.528452,0.641981 -1.18657,1.182213 -1.974428,1.620614 -0.788031,0.438743 -1.551991,0.755422 -2.291024,0.950553 -0.739374,0.19513 -1.571878,0.341777 -2.497845,0.439257 0.844536,0.730838 1.266889,1.88446 1.266889,3.460347 v 5.141742 c 0,0.292097 0.101587,0.535969 0.304901,0.73084 0.203071,0.194532 0.52376,0.251807 0.962501,0.17029 3.769692,-1.250758 6.844473,-3.504992 9.224529,-6.762616 2.379793,-3.257363 3.570121,-6.924794 3.570121,-11.003225 -9.06e-4,-3.394793 -0.838052,-6.525999 -2.51074,-9.393622 z" style="stroke-width:1.32717"  shape-rendering="geometricPrecision" />
</svg>
