<?xml version="1.0" encoding="UTF-8" standalone="no"?>
<svg
    xmlns="http://www.w3.org/2000/svg"
    version="1.0"
    id="icon_linkedin"
    x="0px"
    y="0px"
    viewBox="0 0 48 48"
    width="48px"
    height="48px"
    xml:space="preserve"
>
  <defs/>
  <path id="icon_bg" fill="#2867b1" d="m 47.935735, 41.299903 c 0, 3.665633 -2.970199, 6.635832 -6.635832, 6.635832 H 6.7935735 c -3.6643067, 0 -6.63583251, -2.970199 -6.63583251, -6.635832 V 6.7935731 c 0, -3.665633 2.97152581, -6.63583203 6.63583251, -6.63583203 H 41.299903 c 3.665633, 0 6.635832, 2.97019903 6.635832, 6.63583203 z" style="stroke-width:1.32717" shape-rendering="geometricPrecision" />
  <path id="icon_logo" fill="#ffffff" d="M 14.309574,40.780018 H 7.2627803 V 18.042696 H 14.314511 Z M 10.76026,14.920387 C 7.1236423,14.889658 5.3333399,10.483845 7.916943,7.9249806 10.500546,5.366116 14.88893,7.198724 14.88467,10.835469 c -0.01764,2.264109 -1.860236,4.089059 -4.12441,4.084918 z M 40.830689,40.780018 H 33.776491 V 28.663487 c -6.97e-4,-0.726899 -0.07847,-1.451674 -0.232016,-2.162171 -0.476368,-2.196724 -1.900527,-3.021112 -4.010865,-2.794035 -2.172045,0.234481 -3.312365,1.480937 -3.58387,3.801076 -0.03455,0.30359 -0.05924,0.609647 -0.07897,0.913236 V 40.780018 H 18.786947 V 18.042696 h 7.054198 v 2.833528 c 0.330805,-0.505729 0.718367,-0.971963 1.155129,-1.389614 1.749975,-1.609285 3.83316,-2.157231 6.170576,-1.974582 1.480935,0.108609 2.914971,0.372702 4.195982,1.174876 1.742575,1.08849 2.571902,2.774289 3.023587,4.689635 0.311031,1.402486 0.460098,2.836032 0.444277,4.272506 v 2.937195 10.193778 z" style="stroke-width:1.32717" />
</svg>
