<?xml version="1.0" encoding="UTF-8" standalone="no"?>
<svg
    xmlns="http://www.w3.org/2000/svg"
    version="1.0"
    id="icon_xing"
    x="0px"
    y="0px"
    viewBox="0 0 48 48"
    width="48px"
    height="48px"
    xml:space="preserve"
>
  <defs />
  <path id="icon_bg" fill="#006064" d="m 47.935735,41.299903 c 0,3.665633 -2.970199,6.635832 -6.635832,6.635832 H 6.7935735 c -3.6643067,0 -6.63583251,-2.970199 -6.63583251,-6.635832 V 6.7935731 c 0,-3.665633 2.97152581,-6.63583203 6.63583251,-6.63583203 H 41.299903 c 3.665633,0 6.635832,2.97019903 6.635832,6.63583203 z" style="stroke-width:1.32717" />
  <path id="icon_part_1" fill="#ffffff" d="M 14.288083,32.009737 H 8.9289844 c -0.3225014,0 -0.5640457,-0.145988 -0.6980895,-0.362316 -0.1420068,-0.2296 -0.1499698,-0.526886 0,-0.816208 l 5.6948711,-9.985601 c 0.0053,-0.01327 0.0053,-0.01725 0,-0.03052 l -3.623164,-6.232374 c -0.152624,-0.294631 -0.173859,-0.586608 -0.03185,-0.816208 0.134044,-0.221637 0.406113,-0.3371 0.728614,-0.3371 h 5.360426 c 0.821516,0 1.224974,0.528212 1.490408,1.002011 0,0 3.664306,6.347837 3.685541,6.383671 -0.216328,0.380896 -5.785119,10.164768 -5.785119,10.164768 -0.273396,0.492379 -0.660929,1.029881 -1.462537,1.029881 z" style="stroke-width:1.32717" />
  <path id="icon_part_2" fill="#cddc39" d="M 39.8586,7.9628071 27.993731,28.942655 c -0.0066,0.0146 -0.0066,0.02522 0,0.03451 l 7.554232,13.80784 c 0.148643,0.297285 0.155278,0.597225 0.01194,0.826825 -0.138025,0.220309 -0.386205,0.342409 -0.711361,0.342409 H 29.49608 c -0.818862,0 -1.231611,-0.544139 -1.495717,-1.023246 0,0 -7.596701,-13.932594 -7.616609,-13.968427 0.379574,-0.67155 11.923268,-21.1470739 11.923268,-21.1470739 0.286668,-0.514941 0.63704,-1.021919 1.434667,-1.021919 h 5.417494 c 0.321174,0 0.57599,0.120773 0.711361,0.343737 0.14068,0.228272 0.135371,0.526885 -0.01194,0.825497 z" style="stroke-width:1.32717" />
</svg>
